<svg width="24" height="24" viewBox="0 0 24 24" fill="none" xmlns="http://www.w3.org/2000/svg">
<path fill-rule="evenodd" clip-rule="evenodd" d="M16.354 9.64601C16.4006 9.69245 16.4375 9.74763 16.4627 9.80838C16.4879 9.86912 16.5009 9.93424 16.5009 10C16.5009 10.0658 16.4879 10.1309 16.4627 10.1916C16.4375 10.2524 16.4006 10.3076 16.354 10.354L12 14.707L7.64602 10.354C7.55213 10.2601 7.49939 10.1328 7.49939 10C7.49939 9.86723 7.55213 9.7399 7.64602 9.64601C7.73991 9.55212 7.86725 9.49938 8.00002 9.49938C8.1328 9.49938 8.26013 9.55212 8.35402 9.64601L12 13.293L15.646 9.64601C15.6925 9.59945 15.7476 9.5625 15.8084 9.5373C15.8691 9.51209 15.9343 9.49911 16 9.49911C16.0658 9.49911 16.1309 9.51209 16.1917 9.5373C16.2524 9.5625 16.3076 9.59945 16.354 9.64601Z" fill="#4D4D4D"/>
</svg>
