<svg width="24" height="24" viewBox="0 0 24 24" fill="none" xmlns="http://www.w3.org/2000/svg">
<path fill-rule="evenodd" clip-rule="evenodd" d="M9.64604 7.64601C9.69248 7.59945 9.74766 7.5625 9.80841 7.5373C9.86915 7.51209 9.93427 7.49911 10 7.49911C10.0658 7.49911 10.1309 7.51209 10.1917 7.5373C10.2524 7.5625 10.3076 7.59945 10.354 7.64601L14.707 12L10.354 16.354C10.2602 16.4479 10.1328 16.5006 10 16.5006C9.86726 16.5006 9.73993 16.4479 9.64604 16.354C9.55215 16.2601 9.49941 16.1328 9.49941 16C9.49941 15.8672 9.55215 15.7399 9.64604 15.646L13.293 12L9.64604 8.35401C9.59948 8.30756 9.56253 8.25239 9.53733 8.19164C9.51212 8.1309 9.49915 8.06578 9.49915 8.00001C9.49915 7.93424 9.51212 7.86912 9.53733 7.80838C9.56253 7.74763 9.59948 7.69246 9.64604 7.64601Z" fill="#4D4D4D"/>
</svg>
