<svg width="20" height="20" viewBox="0 0 20 20" fill="none" xmlns="http://www.w3.org/2000/svg">
<path d="M9.19229 13.3078C9.2504 13.3659 9.2965 13.4348 9.32795 13.5107C9.35941 13.5865 9.3756 13.6679 9.3756 13.75C9.3756 13.8321 9.35941 13.9135 9.32795 13.9893C9.2965 14.0652 9.2504 14.1341 9.19229 14.1922L6.69229 16.6922C6.63425 16.7503 6.56531 16.7964 6.48944 16.8279C6.41357 16.8593 6.33224 16.8755 6.2501 16.8755C6.16797 16.8755 6.08664 16.8593 6.01077 16.8279C5.93489 16.7964 5.86596 16.7503 5.80792 16.6922L3.30792 14.1922C3.24985 14.1341 3.20378 14.0652 3.17236 13.9893C3.14093 13.9134 3.12476 13.8321 3.12476 13.75C3.12476 13.6679 3.14093 13.5866 3.17236 13.5107C3.20378 13.4348 3.24985 13.3659 3.30792 13.3078C3.42519 13.1905 3.58425 13.1247 3.7501 13.1247C3.83223 13.1247 3.91354 13.1408 3.98941 13.1723C4.06528 13.2037 4.13422 13.2497 4.19229 13.3078L5.6251 14.7414V3.75C5.6251 3.58424 5.69095 3.42527 5.80816 3.30806C5.92537 3.19085 6.08434 3.125 6.2501 3.125C6.41586 3.125 6.57483 3.19085 6.69204 3.30806C6.80926 3.42527 6.8751 3.58424 6.8751 3.75V14.7414L8.30792 13.3078C8.36596 13.2497 8.43489 13.2036 8.51077 13.1722C8.58664 13.1407 8.66797 13.1245 8.7501 13.1245C8.83224 13.1245 8.91357 13.1407 8.98944 13.1722C9.06531 13.2036 9.13425 13.2497 9.19229 13.3078ZM16.6923 5.80782L14.1923 3.30782C14.1342 3.24971 14.0653 3.20361 13.9894 3.17215C13.9136 3.1407 13.8322 3.12451 13.7501 3.12451C13.668 3.12451 13.5866 3.1407 13.5108 3.17215C13.4349 3.20361 13.366 3.24971 13.3079 3.30782L10.8079 5.80782C10.6906 5.92509 10.6248 6.08415 10.6248 6.25C10.6248 6.41586 10.6906 6.57492 10.8079 6.69219C10.9252 6.80947 11.0843 6.87535 11.2501 6.87535C11.416 6.87535 11.575 6.80947 11.6923 6.69219L13.1251 5.2586V16.25C13.1251 16.4158 13.191 16.5747 13.3082 16.6919C13.4254 16.8092 13.5843 16.875 13.7501 16.875C13.9159 16.875 14.0748 16.8092 14.192 16.6919C14.3093 16.5747 14.3751 16.4158 14.3751 16.25V5.2586L15.8079 6.69219C15.9252 6.80947 16.0843 6.87535 16.2501 6.87535C16.416 6.87535 16.575 6.80947 16.6923 6.69219C16.8096 6.57492 16.8755 6.41586 16.8755 6.25C16.8755 6.08415 16.8096 5.92509 16.6923 5.80782Z" fill="#4D4D4D"/>
</svg>
