<svg width="13" height="17" viewBox="0 0 13 17" fill="none" xmlns="http://www.w3.org/2000/svg">
<path d="M9.9825 7.84687C10.5749 7.27663 10.9834 6.54234 11.1555 5.73828C11.3275 4.93421 11.2554 4.09707 10.9483 3.3343C10.6412 2.57154 10.1131 1.91797 9.43183 1.45749C8.75059 0.997008 7.94727 0.750637 7.125 0.75H0.75C0.551088 0.75 0.360322 0.829018 0.21967 0.96967C0.0790178 1.11032 0 1.30109 0 1.5V15.75C0 15.9489 0.0790178 16.1397 0.21967 16.2803C0.360322 16.421 0.551088 16.5 0.75 16.5H8.25C9.29013 16.5 10.2981 16.1397 11.1026 15.4803C11.907 14.821 12.4582 13.9033 12.6624 12.8834C12.8666 11.8636 12.7112 10.8044 12.2226 9.88618C11.734 8.96795 10.9425 8.24732 9.9825 7.84687ZM1.5 2.25H7.125C7.82119 2.25 8.48887 2.52656 8.98116 3.01884C9.47344 3.51113 9.75 4.17881 9.75 4.875C9.75 5.57119 9.47344 6.23887 8.98116 6.73116C8.48887 7.22344 7.82119 7.5 7.125 7.5H1.5V2.25ZM8.25 15H1.5V9H8.25C9.04565 9 9.80871 9.31607 10.3713 9.87868C10.9339 10.4413 11.25 11.2044 11.25 12C11.25 12.7956 10.9339 13.5587 10.3713 14.1213C9.80871 14.6839 9.04565 15 8.25 15Z" fill="#4D4D4D"/>
</svg>
