<svg width="327" height="50" viewBox="0 0 327 50" fill="none" xmlns="http://www.w3.org/2000/svg">
<path d="M0 12C0 5.37258 5.37258 0 12 0H315C321.627 0 327 5.37258 327 12V38C327 44.6274 321.627 50 315 50H12C5.37259 50 0 44.6274 0 38V12Z" fill="#1A1A1A"/>
<path d="M132.125 18.3438V26.9219H130.641V18.3438H132.125ZM127.656 19.2031V23.1719H122.703V24.9219C125.148 24.8984 126.953 24.8281 129.078 24.5L129.266 25.7031C126.984 26.0781 125.062 26.1406 122.422 26.1406H121.25V22.0312H126.188V20.4219H121.219V19.2031H127.656ZM127.453 27.1875C130.406 27.1875 132.219 28.1094 132.219 29.75C132.219 31.3594 130.406 32.3125 127.453 32.2969C124.484 32.3125 122.688 31.3594 122.688 29.75C122.688 28.1094 124.484 27.1875 127.453 27.1875ZM127.453 28.3594C125.375 28.3594 124.156 28.8594 124.156 29.75C124.156 30.6406 125.375 31.125 127.453 31.125C129.531 31.125 130.734 30.6406 130.734 29.75C130.734 28.8594 129.531 28.3594 127.453 28.3594ZM145.609 19.6875V21.3906C145.609 23.4375 145.609 25.3594 145 28.2656L143.531 28.125C143.828 26.8438 143.984 25.7188 144.062 24.6719L135.656 25.125L135.469 23.9062L144.141 23.5781C144.164 22.8281 144.164 22.1094 144.172 21.3906V20.9062H135.859V19.6875H145.609ZM147.109 29.2344V30.4531H134.344V29.2344H147.109ZM158.391 27.125C161.422 27.125 163.328 28.0781 163.344 29.7188C163.328 31.3438 161.422 32.3125 158.391 32.2969C155.391 32.3125 153.469 31.3438 153.469 29.7188C153.469 28.0781 155.391 27.125 158.391 27.125ZM158.391 28.25C156.266 28.25 154.938 28.7969 154.953 29.7188C154.938 30.625 156.266 31.1562 158.391 31.1562C160.531 31.1562 161.859 30.625 161.875 29.7188C161.859 28.7969 160.531 28.25 158.391 28.25ZM163.234 19.0156V20.1875C163.234 21.3125 163.234 22.4688 162.844 23.9062L161.391 23.75C161.766 22.3203 161.766 21.2891 161.766 20.2031H153.578V19.0156H163.234ZM164.828 24.7656V25.9688H152.094V24.7656H157.203V22.1406H158.656V24.7656H164.828ZM178.703 26.2344V27.4531H175.453V32.3281H173.953V27.4531H170.609V32.3281H169.078V27.4531H165.891V26.2344H178.703ZM172.266 18.8594C175.219 18.8594 177.25 20.0625 177.25 21.9531C177.25 23.8125 175.219 25 172.266 24.9844C169.297 25 167.281 23.8125 167.281 21.9531C167.281 20.0625 169.297 18.8594 172.266 18.8594ZM172.266 20.0469C170.188 20.0625 168.797 20.7812 168.812 21.9531C168.797 23.0938 170.188 23.8125 172.266 23.8125C174.344 23.8125 175.734 23.0938 175.734 21.9531C175.734 20.7812 174.344 20.0625 172.266 20.0469ZM190.641 18.3281V24H192.891V25.2344H190.641V32.3281H189.172V18.3281H190.641ZM187.953 20.5156V21.7344H179.656V20.5156H183.109V18.5156H184.594V20.5156H187.953ZM183.859 22.7656C185.859 22.7656 187.328 24.1094 187.344 26.0156C187.328 27.9375 185.859 29.2656 183.859 29.2812C181.844 29.2656 180.375 27.9375 180.375 26.0156C180.375 24.1094 181.844 22.7656 183.859 22.7656ZM183.859 23.9844C182.672 23.9844 181.781 24.8125 181.797 26.0156C181.781 27.2344 182.672 28.0469 183.859 28.0312C185.047 28.0469 185.922 27.2344 185.922 26.0156C185.922 24.8125 185.047 23.9844 183.859 23.9844ZM205.203 18.3281V32.3281H203.703V18.3281H205.203ZM201.031 19.8281C201.031 23.9219 199.281 27.4844 194.484 29.7812L193.703 28.5781C197.43 26.8047 199.242 24.2812 199.531 21.0156H194.375V19.8281H201.031Z" fill="white"/>
</svg>
