<svg width="43" height="44" viewBox="0 0 43 44" fill="none" xmlns="http://www.w3.org/2000/svg">
<path d="M38.5717 13.5464L17.0768 35.0413C16.952 35.1662 16.8038 35.2653 16.6407 35.3329C16.4776 35.4005 16.3028 35.4353 16.1263 35.4353C15.9497 35.4353 15.7749 35.4005 15.6118 35.3329C15.4487 35.2653 15.3006 35.1662 15.1758 35.0413L5.77175 25.6373C5.51967 25.3852 5.37805 25.0433 5.37805 24.6868C5.37805 24.3303 5.51967 23.9884 5.77175 23.7363C6.02384 23.4842 6.36573 23.3426 6.72223 23.3426C7.07873 23.3426 7.42063 23.4842 7.67271 23.7363L16.1263 32.1916L36.6707 11.6454C36.9228 11.3933 37.2647 11.2517 37.6212 11.2517C37.9777 11.2517 38.3196 11.3933 38.5717 11.6454C38.8238 11.8975 38.9654 12.2394 38.9654 12.5959C38.9654 12.9524 38.8238 13.2943 38.5717 13.5464Z" fill="white"/>
</svg>
