<svg width="77" height="76" viewBox="0 0 77 76" fill="none" xmlns="http://www.w3.org/2000/svg">
<rect x="0.5" width="76" height="76" rx="38" fill="#3BC49F"/>
<path d="M55.5717 29.5464L34.0768 51.0413C33.952 51.1662 33.8038 51.2653 33.6407 51.3329C33.4776 51.4005 33.3028 51.4353 33.1263 51.4353C32.9497 51.4353 32.7749 51.4005 32.6118 51.3329C32.4487 51.2653 32.3006 51.1662 32.1758 51.0413L22.7718 41.6373C22.5197 41.3852 22.3781 41.0433 22.3781 40.6868C22.3781 40.3303 22.5197 39.9884 22.7718 39.7363C23.0238 39.4842 23.3657 39.3426 23.7222 39.3426C24.0787 39.3426 24.4206 39.4842 24.6727 39.7363L33.1263 48.1916L53.6707 27.6454C53.9228 27.3933 54.2647 27.2517 54.6212 27.2517C54.9777 27.2517 55.3196 27.3933 55.5717 27.6454C55.8238 27.8975 55.9654 28.2394 55.9654 28.5959C55.9654 28.9524 55.8238 29.2943 55.5717 29.5464Z" fill="white"/>
</svg>
