<svg width="24" height="24" viewBox="0 0 24 24" fill="none" xmlns="http://www.w3.org/2000/svg">
<path fill-rule="evenodd" clip-rule="evenodd" d="M16.354 9.64592C16.4006 9.69236 16.4375 9.74754 16.4627 9.80828C16.4879 9.86903 16.5009 9.93415 16.5009 9.99992C16.5009 10.0657 16.4879 10.1308 16.4627 10.1916C16.4375 10.2523 16.4006 10.3075 16.354 10.3539L12 14.7069L7.64599 10.3539C7.5521 10.26 7.49936 10.1327 7.49936 9.99992C7.49936 9.86714 7.5521 9.7398 7.64599 9.64592C7.73988 9.55203 7.86722 9.49929 7.99999 9.49929C8.13277 9.49929 8.2601 9.55203 8.35399 9.64592L12 13.2929L15.646 9.64592C15.6924 9.59935 15.7476 9.56241 15.8084 9.5372C15.8691 9.512 15.9342 9.49902 16 9.49902C16.0658 9.49902 16.1309 9.512 16.1916 9.5372C16.2524 9.56241 16.3075 9.59935 16.354 9.64592Z" fill="#4D4D4D"/>
</svg>
