<svg width="19" height="19" viewBox="0 0 19 19" fill="none" xmlns="http://www.w3.org/2000/svg">
<path d="M14.4359 10.0828L10.4039 8.59844L8.91952 4.56328C8.83162 4.32448 8.67258 4.11838 8.46387 3.9728C8.25515 3.82722 8.0068 3.74917 7.75233 3.74917C7.49786 3.74917 7.24952 3.82722 7.0408 3.9728C6.83209 4.11838 6.67305 4.32448 6.58515 4.56328L5.09921 8.59375L1.06405 10.0781C0.825247 10.166 0.619151 10.3251 0.473573 10.5338C0.327994 10.7425 0.249939 10.9908 0.249939 11.2453C0.249939 11.4998 0.327994 11.7481 0.473573 11.9568C0.619151 12.1656 0.825247 12.3246 1.06405 12.4125L5.09374 13.9062L6.57812 17.9391C6.66602 18.1779 6.82506 18.384 7.03377 18.5295C7.24249 18.6751 7.49083 18.7532 7.7453 18.7532C7.99977 18.7532 8.24812 18.6751 8.45683 18.5295C8.66555 18.384 8.82459 18.1779 8.91249 17.9391L10.3969 13.907L14.432 12.4227C14.6708 12.3348 14.8769 12.1757 15.0225 11.967C15.1681 11.7583 15.2461 11.5099 15.2461 11.2555C15.2461 11.001 15.1681 10.7527 15.0225 10.5439C14.8769 10.3352 14.6708 10.1762 14.432 10.0883L14.4359 10.0828ZM9.96796 12.7344C9.79906 12.7964 9.64568 12.8944 9.51846 13.0216C9.39124 13.1488 9.29323 13.3022 9.23124 13.4711L7.74687 17.4914L6.26562 13.468C6.20358 13.3 6.10588 13.1474 5.97924 13.0208C5.8526 12.8941 5.70003 12.7964 5.53202 12.7344L1.51171 11.25L5.53202 9.76562C5.70003 9.70359 5.8526 9.60589 5.97924 9.47925C6.10588 9.35261 6.20358 9.20004 6.26562 9.03203L7.74999 5.01172L9.23437 9.03203C9.29636 9.20093 9.39436 9.35431 9.52158 9.48153C9.6488 9.60875 9.80219 9.70676 9.97108 9.76875L13.9914 11.2531L9.96796 12.7344ZM10.25 3.125C10.25 2.95924 10.3158 2.80027 10.433 2.68306C10.5503 2.56585 10.7092 2.5 10.875 2.5H12.125V1.25C12.125 1.08424 12.1908 0.925268 12.308 0.808058C12.4253 0.690848 12.5842 0.625 12.75 0.625C12.9158 0.625 13.0747 0.690848 13.1919 0.808058C13.3091 0.925268 13.375 1.08424 13.375 1.25V2.5H14.625C14.7908 2.5 14.9497 2.56585 15.0669 2.68306C15.1841 2.80027 15.25 2.95924 15.25 3.125C15.25 3.29076 15.1841 3.44973 15.0669 3.56694C14.9497 3.68415 14.7908 3.75 14.625 3.75H13.375V5C13.375 5.16576 13.3091 5.32473 13.1919 5.44194C13.0747 5.55915 12.9158 5.625 12.75 5.625C12.5842 5.625 12.4253 5.55915 12.308 5.44194C12.1908 5.32473 12.125 5.16576 12.125 5V3.75H10.875C10.7092 3.75 10.5503 3.68415 10.433 3.56694C10.3158 3.44973 10.25 3.29076 10.25 3.125ZM18.375 6.875C18.375 7.04076 18.3091 7.19973 18.1919 7.31694C18.0747 7.43415 17.9158 7.5 17.75 7.5H17.125V8.125C17.125 8.29076 17.0591 8.44973 16.9419 8.56694C16.8247 8.68415 16.6658 8.75 16.5 8.75C16.3342 8.75 16.1753 8.68415 16.058 8.56694C15.9408 8.44973 15.875 8.29076 15.875 8.125V7.5H15.25C15.0842 7.5 14.9253 7.43415 14.808 7.31694C14.6908 7.19973 14.625 7.04076 14.625 6.875C14.625 6.70924 14.6908 6.55027 14.808 6.43306C14.9253 6.31585 15.0842 6.25 15.25 6.25H15.875V5.625C15.875 5.45924 15.9408 5.30027 16.058 5.18306C16.1753 5.06585 16.3342 5 16.5 5C16.6658 5 16.8247 5.06585 16.9419 5.18306C17.0591 5.30027 17.125 5.45924 17.125 5.625V6.25H17.75C17.9158 6.25 18.0747 6.31585 18.1919 6.43306C18.3091 6.55027 18.375 6.70924 18.375 6.875Z" fill="#4D4D4D"/>
</svg>
