<svg width="25" height="24" viewBox="0 0 25 24" fill="none" xmlns="http://www.w3.org/2000/svg">
<path d="M23.0628 10.7489L14.795 5.48391C14.57 5.34007 14.3105 5.25927 14.0437 5.24993C13.7768 5.2406 13.5123 5.30309 13.2778 5.43086C13.0434 5.55864 12.8475 5.74702 12.7107 5.97634C12.5738 6.20566 12.5011 6.4675 12.5 6.73454V10.2314L5.045 5.48391C4.82002 5.34007 4.56054 5.25927 4.29367 5.24993C4.0268 5.2406 3.76232 5.30309 3.52784 5.43086C3.29336 5.55864 3.09748 5.74702 2.96066 5.97634C2.82383 6.20566 2.75108 6.4675 2.75 6.73454V17.2645C2.75139 17.5314 2.82433 17.7931 2.96122 18.0222C3.09811 18.2514 3.29394 18.4396 3.52832 18.5673C3.76269 18.695 4.02703 18.7576 4.29378 18.7484C4.56054 18.7392 4.81996 18.6587 5.045 18.5152L12.5 13.7677V17.2645C12.5014 17.5314 12.5743 17.7931 12.7112 18.0222C12.8481 18.2514 13.0439 18.4396 13.2783 18.5673C13.5127 18.695 13.777 18.7576 14.0438 18.7484C14.3105 18.7392 14.57 18.6587 14.795 18.5152L23.0628 13.2502C23.2735 13.1165 23.4469 12.9317 23.5671 12.7131C23.6873 12.4945 23.7503 12.249 23.7503 11.9995C23.7503 11.75 23.6873 11.5046 23.5671 11.286C23.4469 11.0673 23.2735 10.8826 23.0628 10.7489ZM4.25 17.2439V6.7561L12.4831 11.9995L4.25 17.2439ZM14 17.2439V6.7561L22.2331 11.9995L14 17.2439Z" fill="#4D4D4D"/>
</svg>
