<svg width="26" height="26" viewBox="0 0 26 26" fill="currentColor" xmlns="http://www.w3.org/2000/svg">
<path d="M21.9375 7.31251H13.3362L10.5625 4.53884C10.4122 4.38728 10.2332 4.26713 10.036 4.18536C9.83879 4.10358 9.62731 4.06183 9.41383 4.06251H4.0625C3.63152 4.06251 3.2182 4.23371 2.91345 4.53846C2.6087 4.84321 2.4375 5.25653 2.4375 5.68751V20.3755C2.43804 20.7896 2.60278 21.1866 2.8956 21.4794C3.18842 21.7722 3.58542 21.937 3.99953 21.9375H22.0279C22.4347 21.937 22.8248 21.7751 23.1124 21.4874C23.4001 21.1998 23.562 20.8097 23.5625 20.4029V8.93751C23.5625 8.50653 23.3913 8.09321 23.0865 7.78846C22.7818 7.48371 22.3685 7.31251 21.9375 7.31251ZM9.41383 5.68751L11.0388 7.31251H4.0625V5.68751H9.41383ZM21.9375 20.3125H4.0625V8.93751H21.9375V20.3125ZM13 11.375C13.2155 11.375 13.4222 11.4606 13.5745 11.613C13.7269 11.7654 13.8125 11.972 13.8125 12.1875V13.8125H15.4375C15.653 13.8125 15.8597 13.8981 16.012 14.0505C16.1644 14.2029 16.25 14.4095 16.25 14.625C16.25 14.8405 16.1644 15.0472 16.012 15.1995C15.8597 15.3519 15.653 15.4375 15.4375 15.4375H13.8125V17.0625C13.8125 17.278 13.7269 17.4847 13.5745 17.637C13.4222 17.7894 13.2155 17.875 13 17.875C12.7845 17.875 12.5778 17.7894 12.4255 17.637C12.2731 17.4847 12.1875 17.278 12.1875 17.0625V15.4375H10.5625C10.347 15.4375 10.1403 15.3519 9.98798 15.1995C9.8356 15.0472 9.75 14.8405 9.75 14.625C9.75 14.4095 9.8356 14.2029 9.98798 14.0505C10.1403 13.8981 10.347 13.8125 10.5625 13.8125H12.1875V12.1875C12.1875 11.972 12.2731 11.7654 12.4255 11.613C12.5778 11.4606 12.7845 11.375 13 11.375Z" fill="white"/>
</svg>
