<svg width="20" height="21" viewBox="0 0 20 21" fill="currentColor" xmlns="http://www.w3.org/2000/svg">
<path d="M9.25006 15V1C9.25006 0.585786 9.58585 0.25 10.0001 0.25C10.4143 0.25 10.7501 0.585786 10.7501 1V7.25H12.0001C12.4143 7.25 12.7501 7.58579 12.7501 8C12.7501 8.41421 12.4143 8.75 12.0001 8.75H10.7501V15C10.7501 15.4142 10.4143 15.75 10.0001 15.75C9.58585 15.75 9.25006 15.4142 9.25006 15ZM7.00006 2.25L7.07721 2.25391C7.45518 2.29253 7.75006 2.61183 7.75006 3C7.75006 4.36875 7.32382 6.59701 6.33014 8.6875C5.36835 10.7108 3.81652 12.7235 1.47467 13.625L1.24518 13.709C0.853861 13.8443 0.426573 13.6364 0.291079 13.2451C0.155784 12.8538 0.363647 12.4265 0.754946 12.291L1.11139 12.1543C2.86191 11.411 4.12681 9.82874 4.97565 8.04297C5.70468 6.50912 6.08639 4.90637 6.20709 3.75H1.00006C0.58585 3.75 0.250063 3.41421 0.250063 3C0.250063 2.58579 0.58585 2.25 1.00006 2.25H7.00006Z" fill="#4D4D4D"/>
<path d="M17.5753 20.5V13.5C17.5753 13.2653 17.7653 13.0752 18.0001 13.0752C18.2348 13.0752 18.4249 13.2653 18.4249 13.5V16.5752H19.0001L19.086 16.584C19.2795 16.6237 19.4249 16.7947 19.4249 17C19.4249 17.2053 19.2795 17.3763 19.086 17.416L19.0001 17.4248H18.4249V20.5C18.4249 20.7347 18.2348 20.9248 18.0001 20.9248C17.7653 20.9248 17.5753 20.7347 17.5753 20.5ZM16.5001 14.0752L16.586 14.084C16.7795 14.1237 16.9249 14.2947 16.9249 14.5C16.9249 15.1923 16.7098 16.3137 16.21 17.3652C15.7107 18.4156 14.8916 19.4675 13.6387 19.9014C13.417 19.978 13.1755 19.8604 13.0987 19.6387C13.0221 19.4169 13.1397 19.1754 13.3614 19.0986C14.3118 18.7694 14.9927 17.9462 15.4424 17C15.7932 16.262 15.9801 15.4922 16.046 14.9248H13.5001C13.2653 14.9248 13.0753 14.7347 13.0753 14.5C13.0753 14.2653 13.2653 14.0752 13.5001 14.0752H16.5001Z" fill="#4D4D4D"/>
</svg>
