<svg width="14" height="16" viewBox="0 0 14 16" fill="currentColor" xmlns="http://www.w3.org/2000/svg">
<path d="M13.75 1.25C13.75 1.44891 13.671 1.63968 13.5303 1.78033C13.3897 1.92098 13.1989 2 13 2H9.79094L5.79062 14H8.5C8.69891 14 8.88968 14.079 9.03033 14.2197C9.17098 14.3603 9.25 14.5511 9.25 14.75C9.25 14.9489 9.17098 15.1397 9.03033 15.2803C8.88968 15.421 8.69891 15.5 8.5 15.5H1C0.801088 15.5 0.610322 15.421 0.46967 15.2803C0.329018 15.1397 0.25 14.9489 0.25 14.75C0.25 14.5511 0.329018 14.3603 0.46967 14.2197C0.610322 14.079 0.801088 14 1 14H4.20906L8.20937 2H5.5C5.30109 2 5.11032 1.92098 4.96967 1.78033C4.82902 1.63968 4.75 1.44891 4.75 1.25C4.75 1.05109 4.82902 0.860322 4.96967 0.71967C5.11032 0.579018 5.30109 0.5 5.5 0.5H13C13.1989 0.5 13.3897 0.579018 13.5303 0.71967C13.671 0.860322 13.75 1.05109 13.75 1.25Z" fill="#4D4D4D"/>
</svg>
