<svg width="20" height="20" viewBox="0 0 20 20" fill="currentColor" xmlns="http://www.w3.org/2000/svg">
<path d="M13.5306 6.46927C13.6004 6.53892 13.6557 6.62164 13.6934 6.71269C13.7312 6.80373 13.7506 6.90133 13.7506 6.99989C13.7506 7.09845 13.7312 7.19605 13.6934 7.2871C13.6557 7.37814 13.6004 7.46086 13.5306 7.53052L7.53065 13.5305C7.46097 13.6002 7.37824 13.6555 7.2872 13.6932C7.19615 13.7309 7.09857 13.7503 7.00002 13.7503C6.90148 13.7503 6.8039 13.7309 6.71285 13.6932C6.62181 13.6555 6.53908 13.6002 6.4694 13.5305C6.39972 13.4608 6.34444 13.3781 6.30673 13.2871C6.26902 13.196 6.24961 13.0984 6.24961 12.9999C6.24961 12.9013 6.26902 12.8038 6.30673 12.7127C6.34444 12.6217 6.39972 12.5389 6.4694 12.4693L12.4694 6.46927C12.5391 6.39953 12.6218 6.34421 12.7128 6.30647C12.8039 6.26873 12.9015 6.2493 13 6.2493C13.0986 6.2493 13.1962 6.26873 13.2872 6.30647C13.3783 6.34421 13.461 6.39953 13.5306 6.46927ZM18.2125 1.78739C17.725 1.29983 17.1462 0.913066 16.5092 0.649195C15.8722 0.385325 15.1895 0.249512 14.5 0.249512C13.8105 0.249512 13.1278 0.385325 12.4908 0.649195C11.8538 0.913066 11.275 1.29983 10.7875 1.78739L7.9694 4.60458C7.82867 4.74531 7.74961 4.93618 7.74961 5.1352C7.74961 5.33423 7.82867 5.5251 7.9694 5.66583C8.11013 5.80656 8.301 5.88562 8.50002 5.88562C8.69905 5.88562 8.88992 5.80656 9.03065 5.66583L11.8488 2.85333C12.5546 2.163 13.5042 1.77887 14.4915 1.78431C15.4787 1.78975 16.4241 2.18431 17.1222 2.88237C17.8204 3.58043 18.2151 4.52566 18.2208 5.51294C18.2264 6.50022 17.8424 7.44988 17.1522 8.15583L14.3331 10.974C14.1924 11.1146 14.1133 11.3053 14.1132 11.5042C14.1131 11.7032 14.1921 11.894 14.3327 12.0347C14.4733 12.1755 14.664 12.2546 14.863 12.2547C15.0619 12.2548 15.2527 12.1758 15.3935 12.0352L18.2125 9.21239C18.7001 8.72488 19.0868 8.1461 19.3507 7.5091C19.6146 6.87211 19.7504 6.18938 19.7504 5.49989C19.7504 4.81041 19.6146 4.12767 19.3507 3.49068C19.0868 2.85368 18.7001 2.27491 18.2125 1.78739ZM10.9694 14.333L8.15127 17.1511C7.80447 17.5057 7.39077 17.788 6.93413 17.9816C6.47749 18.1752 5.98698 18.2763 5.491 18.279C4.99502 18.2818 4.50342 18.1861 4.04468 17.9975C3.58593 17.809 3.16915 17.5313 2.81846 17.1805C2.46778 16.8298 2.19015 16.4129 2.00167 15.9542C1.81319 15.4954 1.71759 15.0038 1.72041 14.5078C1.72323 14.0118 1.82441 13.5213 2.01809 13.0647C2.21178 12.6081 2.49412 12.1944 2.84877 11.8477L5.66596 9.03052C5.80669 8.88979 5.88575 8.69891 5.88575 8.49989C5.88575 8.30087 5.80669 8.11 5.66596 7.96927C5.52523 7.82854 5.33436 7.74947 5.13534 7.74947C4.93631 7.74947 4.74544 7.82854 4.60471 7.96927L1.78752 10.7874C0.802908 11.772 0.249756 13.1074 0.249756 14.4999C0.249756 15.8923 0.802908 17.2278 1.78752 18.2124C2.77214 19.197 4.10757 19.7502 5.50002 19.7502C6.89248 19.7502 8.22791 19.197 9.21252 18.2124L12.0306 15.3933C12.1713 15.2526 12.2502 15.0618 12.2501 14.8628C12.25 14.6639 12.1709 14.4732 12.0302 14.3325C11.8894 14.1919 11.6986 14.113 11.4997 14.1131C11.3008 14.1132 11.11 14.1923 10.9694 14.333Z" fill="#4D4D4D"/>
</svg>
