<svg width="94" height="94" viewBox="0 0 94 94" fill="none" xmlns="http://www.w3.org/2000/svg">
<path d="M13.4286 63.8742C13.4286 59.9762 16.5885 56.8162 20.4865 56.8162H72.9172C76.8152 56.8162 79.9751 59.9762 79.9751 63.8742C79.9751 67.7722 76.8152 70.9321 72.9172 70.9321H20.4865C16.5885 70.9321 13.4286 67.7722 13.4286 63.8742Z" fill="#39B997"/>
<path d="M13.4821 50.7464C13.007 46.8774 15.7583 43.3559 19.6273 42.8809L71.6671 36.4912C75.5361 36.0162 79.0576 38.7675 79.5326 42.6364C80.0077 46.5054 77.2564 50.0269 73.3874 50.5019L21.3476 56.8916C17.4786 57.3667 13.9571 54.6154 13.4821 50.7464Z" fill="#B0E7D9"/>
<path d="M13.4625 26.4407C13.6665 22.548 16.9875 19.5578 20.8802 19.7618L73.239 22.5058C77.1316 22.7098 80.1219 26.0308 79.9179 29.9235C79.7139 33.8162 76.3928 36.8064 72.5002 36.6024L20.1414 33.8584C16.2487 33.6544 13.2585 30.3334 13.4625 26.4407Z" fill="#DCF2EC"/>
</svg>
