<svg width="327" height="50" viewBox="0 0 327 50" fill="none" xmlns="http://www.w3.org/2000/svg">
<path d="M0 12C0 5.37258 5.37258 0 12 0H315C321.627 0 327 5.37258 327 12V38C327 44.6274 321.627 50 315 50H12C5.37259 50 0 44.6274 0 38V12Z" fill="#1A1A1A"/>
<path d="M128.228 16.784H129.508V25.152H128.228V16.784ZM125.46 17.072H126.724V24.992H125.46V17.072ZM123.156 20.304H125.892V21.408H123.156V20.304ZM117.94 17.824H123.524V24.08H117.94V17.824ZM122.276 18.864H119.188V23.072H122.276V18.864ZM120.004 25.872H129.508V31.056H120.004V25.872ZM128.196 26.928H121.3V29.968H128.196V26.928ZM142.611 16.768H143.923V31.264H142.611V16.768ZM138.803 22.144H142.995V23.232H138.803V22.144ZM132.595 17.904H133.923V21.664H137.939V17.904H139.235V27.616H132.595V17.904ZM133.923 22.72V26.528H137.939V22.72H133.923ZM151.534 28.32H164.654V29.424H151.534V28.32ZM157.422 25.04H158.734V28.912H157.422V25.04ZM157.406 19.808H158.59V20.128C158.59 20.864 158.436 21.536 158.126 22.144C157.817 22.7413 157.39 23.2747 156.846 23.744C156.302 24.2027 155.684 24.5867 154.99 24.896C154.297 25.1947 153.556 25.408 152.766 25.536L152.254 24.496C152.958 24.3787 153.62 24.192 154.238 23.936C154.868 23.68 155.417 23.36 155.886 22.976C156.366 22.592 156.74 22.16 157.006 21.68C157.273 21.2 157.406 20.6827 157.406 20.128V19.808ZM157.582 19.808H158.75V20.128C158.75 20.6827 158.884 21.2 159.15 21.68C159.417 22.16 159.785 22.592 160.254 22.976C160.734 23.36 161.284 23.68 161.902 23.936C162.532 24.192 163.198 24.3787 163.902 24.496L163.39 25.536C162.612 25.408 161.87 25.1947 161.166 24.896C160.473 24.5867 159.854 24.2027 159.31 23.744C158.777 23.2747 158.356 22.7413 158.046 22.144C157.737 21.536 157.582 20.864 157.582 20.128V19.808ZM152.75 19.056H163.406V20.144H152.75V19.056ZM157.422 17.072H158.734V19.456H157.422V17.072ZM177.261 16.768H178.525V31.248H177.261V16.768ZM174.813 22.576H177.597V23.664H174.813V22.576ZM173.981 17.088H175.213V30.496H173.981V17.088ZM166.765 26.56H167.709C168.424 26.56 169.069 26.5547 169.645 26.544C170.232 26.5227 170.786 26.48 171.309 26.416C171.842 26.352 172.386 26.2613 172.941 26.144L173.069 27.248C172.493 27.3653 171.933 27.456 171.389 27.52C170.856 27.584 170.29 27.6267 169.693 27.648C169.106 27.6693 168.445 27.68 167.709 27.68H166.765V26.56ZM166.765 18.528H172.141V19.616H168.093V27.072H166.765V18.528ZM190.78 16.768H192.092V31.248H190.78V16.768ZM191.788 22.72H194.46V23.84H191.788V22.72ZM180.892 19.088H189.42V20.176H180.892V19.088ZM185.228 21.36C185.911 21.36 186.513 21.504 187.036 21.792C187.569 22.08 187.985 22.4747 188.284 22.976C188.593 23.4667 188.748 24.0373 188.748 24.688C188.748 25.3387 188.593 25.9147 188.284 26.416C187.985 26.9173 187.569 27.312 187.036 27.6C186.513 27.8773 185.911 28.016 185.228 28.016C184.545 28.016 183.937 27.8773 183.404 27.6C182.881 27.312 182.465 26.9173 182.156 26.416C181.847 25.9147 181.692 25.3387 181.692 24.688C181.692 24.0373 181.847 23.4667 182.156 22.976C182.465 22.4747 182.881 22.08 183.404 21.792C183.937 21.504 184.545 21.36 185.228 21.36ZM185.228 22.464C184.791 22.464 184.401 22.56 184.06 22.752C183.719 22.944 183.447 23.2053 183.244 23.536C183.052 23.8667 182.956 24.2507 182.956 24.688C182.956 25.1253 183.052 25.5147 183.244 25.856C183.447 26.1867 183.719 26.448 184.06 26.64C184.401 26.8213 184.791 26.912 185.228 26.912C185.655 26.912 186.039 26.8213 186.38 26.64C186.721 26.448 186.988 26.1867 187.18 25.856C187.383 25.5147 187.484 25.1253 187.484 24.688C187.484 24.2507 187.383 23.8667 187.18 23.536C186.988 23.2053 186.721 22.944 186.38 22.752C186.039 22.56 185.655 22.464 185.228 22.464ZM184.54 16.944H185.868V19.568H184.54V16.944ZM206.235 16.768H207.563V31.248H206.235V16.768ZM201.995 18.336H203.307C203.307 19.3813 203.179 20.3893 202.923 21.36C202.677 22.3307 202.288 23.2533 201.755 24.128C201.221 24.992 200.528 25.7973 199.675 26.544C198.821 27.2907 197.787 27.9573 196.571 28.544L195.867 27.472C197.264 26.8 198.416 26.016 199.323 25.12C200.229 24.224 200.901 23.2267 201.339 22.128C201.776 21.0187 201.995 19.824 201.995 18.544V18.336ZM196.539 18.336H202.555V19.408H196.539V18.336Z" fill="white"/>
</svg>
