<svg width="16" height="21" viewBox="0 0 16 21" fill="currentColor" xmlns="http://www.w3.org/2000/svg">
<path d="M7.41211 20V17.8281C3.418 17.4679 0.287308 14.1132 0.287109 10.0254C0.287109 9.63189 0.606497 9.3125 1 9.3125C1.3935 9.3125 1.71289 9.63189 1.71289 10.0254C1.7131 13.5666 4.58373 16.4375 8.125 16.4375C11.6663 16.4375 14.5369 13.5666 14.5371 10.0254C14.5371 9.63189 14.8565 9.3125 15.25 9.3125C15.6435 9.3125 15.9629 9.63189 15.9629 10.0254C15.9627 14.1132 12.832 17.4679 8.83789 17.8281V20C8.83789 20.3935 8.5185 20.7129 8.125 20.7129C7.7315 20.7129 7.41211 20.3935 7.41211 20ZM10.7373 4.3252C10.7373 2.88235 9.56784 1.71289 8.125 1.71289C6.68217 1.71291 5.5127 2.88236 5.5127 4.3252V10.5C5.5127 11.9428 6.68217 13.1123 8.125 13.1123C9.56784 13.1123 10.7373 11.9428 10.7373 10.5V4.3252ZM12.1621 10.5C12.1621 12.7298 10.3548 14.5371 8.125 14.5371C5.89516 14.5371 4.08789 12.7298 4.08789 10.5V4.3252C4.08789 2.09536 5.89516 0.287127 8.125 0.287109C10.3548 0.287109 12.1621 2.09535 12.1621 4.3252V10.5Z" fill="#4D4D4D"/>
</svg>
