<svg width="186" height="31" viewBox="0 0 186 31" fill="none" xmlns="http://www.w3.org/2000/svg">
<path d="M16.6783 0.949317C16.6783 0.425023 17.1033 0 17.6276 0H22.5713C23.0956 0 23.5206 0.425024 23.5206 0.949317V28.7962C23.5206 29.3205 23.0956 29.7455 22.5713 29.7455H18.8771C18.5707 29.7455 18.2831 29.5976 18.1049 29.3484L8.56389 16.0055C8.02685 15.2544 6.84236 15.6344 6.84236 16.5576V28.7962C6.84236 29.3205 6.41734 29.7455 5.89305 29.7455H0.949318C0.425024 29.7455 0 29.3205 0 28.7962V0.949318C0 0.425024 0.425024 0 0.949317 0H4.64354C4.94996 0 5.23753 0.147896 5.41575 0.397142L14.9567 13.74C15.4938 14.4911 16.6783 14.1111 16.6783 13.1879V0.949317Z" fill="#61CFB2"/>
<path d="M38.6988 30.3404C32.4124 30.3404 27.3661 25.4537 27.3661 19.1221C27.3661 12.7906 32.4124 7.90381 38.6988 7.90381C44.9852 7.90381 50.0314 12.7906 50.0314 19.1221C50.0314 25.4537 44.9852 30.3404 38.6988 30.3404ZM38.6988 24.1364C41.4785 24.1364 43.6167 22.1392 43.6167 19.1221C43.6167 16.1051 41.4785 14.1079 38.6988 14.1079C35.9191 14.1079 33.7808 16.1051 33.7808 19.1221C33.7808 22.1392 35.9191 24.1364 38.6988 24.1364Z" fill="#61CFB2"/>
<path d="M65.7722 13.6685C65.7722 14.1928 65.3472 14.6178 64.8229 14.6178H62.3168C61.7925 14.6178 61.3674 15.0428 61.3674 15.5671V22.1392C61.3674 23.7361 62.5761 24.0672 64.765 24.0118C65.3115 23.998 65.7722 24.4279 65.7722 24.9746V28.8876C65.7722 29.3748 65.4017 29.7847 64.9159 29.8223C57.2231 30.4161 54.9527 27.8806 54.9527 22.1392V15.5671C54.9527 15.0428 54.5277 14.6178 54.0034 14.6178H52.4809C51.9566 14.6178 51.5315 14.1928 51.5315 13.6685V9.44804C51.5315 8.92374 51.9566 8.49872 52.4809 8.49872H54.0034C54.5277 8.49872 54.9527 8.0737 54.9527 7.5494V5.16944C54.9527 4.7496 55.2285 4.37962 55.6308 4.25968L60.1469 2.91345C60.7557 2.73198 61.3674 3.18798 61.3674 3.8232V7.5494C61.3674 8.0737 61.7925 8.49872 62.3168 8.49872H64.8229C65.3472 8.49872 65.7722 8.92374 65.7722 9.44804V13.6685Z" fill="#61CFB2"/>
<path d="M84.5102 9.04383C84.5102 8.74277 84.7542 8.49872 85.0553 8.49872H89.9756C90.4999 8.49872 90.9249 8.92374 90.9249 9.44804V28.7962C90.9249 29.3205 90.4999 29.7455 89.9756 29.7455H85.0553C84.7542 29.7455 84.5102 29.5015 84.5102 29.2004C84.5102 28.6969 83.8523 28.4338 83.4515 28.7385C82.116 29.7538 80.3581 30.3404 78.1382 30.3404C72.5361 30.3404 67.9175 25.4537 67.9175 19.1221C67.9175 12.7906 72.5361 7.90381 78.1382 7.90381C80.3581 7.90381 82.116 8.49048 83.4515 9.50572C83.8523 9.81042 84.5102 9.54733 84.5102 9.04383ZM79.4212 24.3063C82.372 24.3063 84.5102 22.3091 84.5102 19.1221C84.5102 15.9351 82.372 13.9379 79.4212 13.9379C76.4704 13.9379 74.3322 15.9351 74.3322 19.1221C74.3322 22.3091 76.4704 24.3063 79.4212 24.3063Z" fill="#61CFB2"/>
<path d="M112.523 0.949317C112.523 0.425023 112.948 0 113.472 0H118.416C118.94 0 119.365 0.425024 119.365 0.949317V28.7962C119.365 29.3205 118.94 29.7455 118.416 29.7455H114.722C114.416 29.7455 114.128 29.5976 113.95 29.3484L104.409 16.0055C103.872 15.2544 102.687 15.6344 102.687 16.5576V28.7962C102.687 29.3205 102.262 29.7455 101.738 29.7455H96.7942C96.2699 29.7455 95.8449 29.3205 95.8449 28.7962V0.949318C95.8449 0.425024 96.2699 0 96.7942 0H100.488C100.795 0 101.082 0.147896 101.261 0.397142L110.802 13.74C111.339 14.4911 112.523 14.1111 112.523 13.1879V0.949317Z" fill="#61CFB2"/>
<path d="M134.544 30.3404C128.257 30.3404 123.211 25.4537 123.211 19.1221C123.211 12.7906 128.257 7.90381 134.544 7.90381C140.83 7.90381 145.876 12.7906 145.876 19.1221C145.876 25.4537 140.83 30.3404 134.544 30.3404ZM134.544 24.1364C137.323 24.1364 139.462 22.1392 139.462 19.1221C139.462 16.1051 137.323 14.1079 134.544 14.1079C131.764 14.1079 129.626 16.1051 129.626 19.1221C129.626 22.1392 131.764 24.1364 134.544 24.1364Z" fill="#61CFB2"/>
<path d="M161.617 13.6685C161.617 14.1928 161.192 14.6178 160.668 14.6178H158.162C157.637 14.6178 157.212 15.0428 157.212 15.5671V22.1392C157.212 23.7361 158.421 24.0672 160.61 24.0118C161.156 23.998 161.617 24.4279 161.617 24.9746V28.8876C161.617 29.3748 161.247 29.7847 160.761 29.8223C153.068 30.4161 150.798 27.8806 150.798 22.1392V15.5671C150.798 15.0428 150.373 14.6178 149.848 14.6178H148.326C147.801 14.6178 147.376 14.1928 147.376 13.6685V9.44804C147.376 8.92374 147.801 8.49872 148.326 8.49872H149.848C150.373 8.49872 150.798 8.0737 150.798 7.5494V5.16944C150.798 4.7496 151.073 4.37962 151.476 4.25968L155.992 2.91345C156.601 2.73198 157.212 3.18798 157.212 3.8232V7.5494C157.212 8.0737 157.637 8.49872 158.162 8.49872H160.668C161.192 8.49872 161.617 8.92374 161.617 9.44804V13.6685Z" fill="#61CFB2"/>
<path d="M171.922 21.6717C171.262 21.6717 170.806 22.3397 171.208 22.8638C172.205 24.1652 173.828 24.6463 175.694 24.6463C177.11 24.6463 178.358 24.2028 179.237 23.5398C179.591 23.2725 180.073 23.1879 180.458 23.4081L184.012 25.4386C184.503 25.7189 184.644 26.3662 184.269 26.7893C182.193 29.1361 179.264 30.3404 175.608 30.3404C168.295 30.3404 163.762 25.4537 163.762 19.1221C163.762 12.7906 168.381 7.90381 175.138 7.90381C181.381 7.90381 186 12.7056 186 19.1221C186 19.7399 185.959 20.3373 185.877 20.9143C185.814 21.3583 185.423 21.6717 184.974 21.6717H171.922ZM170.899 15.7583C170.594 16.3062 171.054 16.9124 171.681 16.9124H178.379C179.007 16.9124 179.467 16.3051 179.16 15.7571C178.269 14.1623 176.682 13.5555 175.095 13.5555C173.132 13.5555 171.697 14.3267 170.899 15.7583Z" fill="#61CFB2"/>
</svg>
