<svg width="20" height="20" viewBox="0 0 20 20" fill="currentColor" xmlns="http://www.w3.org/2000/svg">
<path d="M7 3H19M3 5V1L1.5 2.5M3.5 12H1.5L3.405 9.037C3.43774 8.99058 3.46096 8.93814 3.47332 8.8827C3.48567 8.82726 3.48693 8.76993 3.477 8.714C3.42 8.456 3.216 8 2.5 8C1.5 8 1.5 8.889 1.5 8.889V9.111M1.5 19H2.5C2.76522 19 3.01957 18.8946 3.20711 18.7071C3.39464 18.5196 3.5 18.2652 3.5 18C3.5 17.7348 3.39464 17.4804 3.20711 17.2929C3.01957 17.1054 2.76522 17 2.5 17H2L3.5 15H1.5M7 10H19M7 17H19" stroke="#4D4D4D" stroke-width="1.5" stroke-linecap="round" stroke-linejoin="round"/>
</svg>
