<svg width="24" height="24" viewBox="0 0 24 24" fill="currentColor" xmlns="http://www.w3.org/2000/svg">
<path d="M18.4399 10.961L7.79655 4.18115C7.61711 4.06673 7.41158 4.00427 7.20121 4.00021C6.99083 3.99615 6.78322 4.05065 6.59984 4.15807C6.41819 4.26383 6.26688 4.41805 6.16146 4.60489C6.05603 4.79172 6.0003 5.00442 6 5.22112V18.7793C6.00137 19.1043 6.12664 19.4155 6.34828 19.6444C6.56991 19.8733 6.86977 20.0012 7.18194 20C7.39983 19.9999 7.61348 19.9374 7.79951 19.8192L18.4399 13.0394C18.611 12.9308 18.7523 12.7783 18.8504 12.5965C18.9485 12.4146 19 12.2095 19 12.001C19 11.7924 18.9485 11.5873 18.8504 11.4055C18.7523 11.2236 18.611 11.0711 18.4399 10.9625V10.961ZM7.18194 18.7646V5.23112L17.8069 12.0002L7.18194 18.7646Z" fill="#4D4D4D"/>
</svg>
