<svg width="30" height="30" viewBox="0 0 30 30" fill="none" xmlns="http://www.w3.org/2000/svg">
<rect x="0.5" y="0.5" width="29" height="29" rx="14.5" fill="#FAFAFA"/>
<rect x="0.5" y="0.5" width="29" height="29" rx="14.5" stroke="#F1F1F1"/>
<path d="M19.375 11.0625H17.8591L17.1137 9.94469C17.0737 9.88483 17.0197 9.83575 16.9562 9.80179C16.8928 9.76783 16.822 9.75004 16.75 9.75H13.25C13.178 9.75004 13.1072 9.76783 13.0438 9.80179C12.9803 9.83575 12.9263 9.88483 12.8863 9.94469L12.1404 11.0625H10.625C10.2769 11.0625 9.94306 11.2008 9.69692 11.4469C9.45078 11.6931 9.3125 12.0269 9.3125 12.375V18.5C9.3125 18.8481 9.45078 19.1819 9.69692 19.4281C9.94306 19.6742 10.2769 19.8125 10.625 19.8125H19.375C19.7231 19.8125 20.0569 19.6742 20.3031 19.4281C20.5492 19.1819 20.6875 18.8481 20.6875 18.5V12.375C20.6875 12.0269 20.5492 11.6931 20.3031 11.4469C20.0569 11.2008 19.7231 11.0625 19.375 11.0625ZM19.8125 18.5C19.8125 18.616 19.7664 18.7273 19.6844 18.8094C19.6023 18.8914 19.491 18.9375 19.375 18.9375H10.625C10.509 18.9375 10.3977 18.8914 10.3156 18.8094C10.2336 18.7273 10.1875 18.616 10.1875 18.5V12.375C10.1875 12.259 10.2336 12.1477 10.3156 12.0656C10.3977 11.9836 10.509 11.9375 10.625 11.9375H12.375C12.447 11.9375 12.518 11.9198 12.5815 11.8858C12.6451 11.8519 12.6992 11.8027 12.7392 11.7428L13.4841 10.625H16.5154L17.2608 11.7428C17.3008 11.8027 17.3549 11.8519 17.4185 11.8858C17.482 11.9198 17.553 11.9375 17.625 11.9375H19.375C19.491 11.9375 19.6023 11.9836 19.6844 12.0656C19.7664 12.1477 19.8125 12.259 19.8125 12.375V18.5ZM15 12.8125C14.5241 12.8125 14.0589 12.9536 13.6632 13.218C13.2675 13.4824 12.959 13.8582 12.7769 14.2979C12.5948 14.7376 12.5471 15.2214 12.64 15.6882C12.7328 16.155 12.962 16.5837 13.2985 16.9202C13.635 17.2567 14.0638 17.4859 14.5306 17.5788C14.9973 17.6716 15.4811 17.624 15.9208 17.4418C16.3605 17.2597 16.7363 16.9513 17.0007 16.5556C17.2651 16.1599 17.4062 15.6947 17.4062 15.2188C17.4055 14.5808 17.1518 13.9692 16.7007 13.5181C16.2496 13.067 15.638 12.8132 15 12.8125ZM15 16.75C14.6971 16.75 14.4011 16.6602 14.1493 16.4919C13.8975 16.3237 13.7012 16.0845 13.5853 15.8047C13.4694 15.5249 13.4391 15.2171 13.4982 14.92C13.5573 14.623 13.7031 14.3501 13.9172 14.136C14.1314 13.9218 14.4042 13.776 14.7013 13.7169C14.9983 13.6578 15.3062 13.6882 15.586 13.8041C15.8658 13.92 16.1049 14.1162 16.2732 14.368C16.4414 14.6198 16.5312 14.9159 16.5312 15.2188C16.5312 15.6249 16.3699 16.0143 16.0828 16.3015C15.7956 16.5887 15.4061 16.75 15 16.75Z" fill="#4D4D4D"/>
</svg>
