<svg width="20" height="20" viewBox="0 0 20 20" fill="currentColor" xmlns="http://www.w3.org/2000/svg">
<path d="M19.218 6.77335L14.4766 2.03272C14.3606 1.91662 14.2227 1.82452 14.0711 1.76168C13.9194 1.69885 13.7568 1.6665 13.5926 1.6665C13.4285 1.6665 13.2659 1.69885 13.1142 1.76168C12.9626 1.82452 12.8247 1.91662 12.7087 2.03272L8.51882 6.23585C7.68601 5.97491 5.78444 5.66007 3.80007 7.26241C3.66329 7.37239 3.55121 7.50995 3.47112 7.66612C3.39102 7.82229 3.34472 7.99358 3.33521 8.16883C3.3257 8.34409 3.35321 8.51938 3.41594 8.6833C3.47867 8.84722 3.57521 8.99609 3.69929 9.12022L7.47429 12.8937L4.14148 16.2241C4.0242 16.3414 3.95832 16.5005 3.95832 16.6663C3.95832 16.8322 4.0242 16.9912 4.14148 17.1085C4.25875 17.2258 4.41781 17.2917 4.58366 17.2917C4.74952 17.2917 4.90857 17.2258 5.02585 17.1085L8.35632 13.7757L12.129 17.5483C12.245 17.6648 12.3828 17.7573 12.5345 17.8204C12.6863 17.8835 12.849 17.9161 13.0133 17.9163C13.043 17.9163 13.0719 17.9163 13.1016 17.9163C13.2798 17.904 13.4533 17.8534 13.6102 17.7681C13.7671 17.6828 13.9038 17.5646 14.011 17.4218C15.5454 15.3827 15.3977 13.7249 15.0415 12.7343L19.2188 8.54132C19.3349 8.42519 19.4269 8.28733 19.4897 8.13563C19.5524 7.98393 19.5847 7.82135 19.5846 7.65717C19.5846 7.49299 19.5522 7.33044 19.4893 7.17879C19.4264 7.02714 19.3342 6.88937 19.218 6.77335ZM18.3337 7.65772L13.8594 12.1468C13.767 12.2395 13.7061 12.3589 13.6852 12.4882C13.6643 12.6174 13.6846 12.75 13.743 12.8671C14.4821 14.346 13.6024 15.8819 13.0133 16.6655L4.58366 8.23507C5.52741 7.47413 6.43054 7.27335 7.12116 7.27335C7.55939 7.26737 7.994 7.35333 8.39694 7.52569C8.5145 7.58452 8.64762 7.60479 8.77736 7.58361C8.9071 7.56243 9.02686 7.50089 9.1196 7.40772L13.593 2.91632L18.3337 7.65694V7.65772Z" fill="#4D4D4D"/>
</svg>
