<svg width="25" height="24" viewBox="0 0 25 24" fill="none" xmlns="http://www.w3.org/2000/svg">
<path d="M21.4785 5.43704C21.2433 5.30844 20.9779 5.24522 20.71 5.25396C20.4421 5.26269 20.1814 5.34307 19.9551 5.48673L12.5001 10.2314V6.73454C12.499 6.4675 12.4262 6.20566 12.2894 5.97634C12.1526 5.74702 11.9567 5.55864 11.7222 5.43086C11.4878 5.30309 11.2233 5.2406 10.9564 5.24993C10.6895 5.25927 10.4301 5.34007 10.2051 5.48391L1.93726 10.7489C1.72661 10.8826 1.55315 11.0673 1.43296 11.286C1.31277 11.5046 1.24976 11.75 1.24976 11.9995C1.24976 12.249 1.31277 12.4945 1.43296 12.7131C1.55315 12.9317 1.72661 13.1165 1.93726 13.2502L10.2051 18.5152C10.4301 18.659 10.6895 18.7398 10.9564 18.7491C11.2233 18.7585 11.4878 18.696 11.7222 18.5682C11.9567 18.4404 12.1526 18.2521 12.2894 18.0227C12.4262 17.7934 12.499 17.5316 12.5001 17.2645V13.7677L19.9551 18.5152C20.1801 18.659 20.4395 18.7398 20.7064 18.7491C20.9733 18.7585 21.2378 18.696 21.4722 18.5682C21.7067 18.4404 21.9026 18.2521 22.0394 18.0227C22.1762 17.7934 22.249 17.5316 22.2501 17.2645V6.73454C22.2493 6.46902 22.1773 6.20857 22.0416 5.98036C21.9059 5.75214 21.7114 5.56451 21.4785 5.43704ZM11.0001 17.243L2.76694 11.9995L11.0001 6.75516V17.243ZM20.7501 17.243L12.5169 11.9995L20.7501 6.75516V17.243Z" fill="#4D4D4D"/>
</svg>
