<svg width="141" height="23" viewBox="0 0 141 23" fill="none" xmlns="http://www.w3.org/2000/svg">
<path d="M12.6432 0.719643C12.6432 0.322195 12.9654 0 13.3628 0H17.1105C17.508 0 17.8301 0.322196 17.8301 0.719644V21.8294C17.8301 22.2268 17.508 22.549 17.1105 22.549H14.31C14.0778 22.549 13.8598 22.4369 13.7247 22.248L6.49198 12.1332C6.08487 11.5639 5.18695 11.8519 5.18695 12.5518V21.8294C5.18695 22.2268 4.86476 22.549 4.46731 22.549H0.719644C0.322196 22.549 0 22.2268 0 21.8294V0.719645C0 0.322197 0.322196 0 0.719644 0H3.52011C3.75239 0 3.97038 0.112115 4.10549 0.301059L11.3382 10.4158C11.7453 10.9852 12.6432 10.6972 12.6432 9.99725V0.719643Z" fill="white"/>
<path d="M29.3362 23C24.5707 23 20.7453 19.2955 20.7453 14.4958C20.7453 9.69608 24.5707 5.9916 29.3362 5.9916C34.1017 5.9916 37.9271 9.69608 37.9271 14.4958C37.9271 19.2955 34.1017 23 29.3362 23ZM29.3362 18.2969C31.4434 18.2969 33.0643 16.7829 33.0643 14.4958C33.0643 12.2087 31.4434 10.6947 29.3362 10.6947C27.229 10.6947 25.608 12.2087 25.608 14.4958C25.608 16.7829 27.229 18.2969 29.3362 18.2969Z" fill="white"/>
<path d="M49.8596 10.3616C49.8596 10.759 49.5374 11.0812 49.1399 11.0812H47.2401C46.8427 11.0812 46.5205 11.4034 46.5205 11.8009V16.7829C46.5205 17.9935 47.4367 18.2445 49.096 18.2025C49.5103 18.192 49.8596 18.5179 49.8596 18.9324V21.8987C49.8596 22.268 49.5787 22.5788 49.2104 22.6072C43.3788 23.0574 41.6577 21.1353 41.6577 16.7829V11.8009C41.6577 11.4034 41.3355 11.0812 40.9381 11.0812H39.7839C39.3864 11.0812 39.0642 10.759 39.0642 10.3616V7.16222C39.0642 6.76477 39.3864 6.44258 39.7839 6.44258H40.9381C41.3355 6.44258 41.6577 6.12038 41.6577 5.72293V3.91877C41.6577 3.6005 41.8668 3.32003 42.1718 3.22911L45.5952 2.20858C46.0567 2.07102 46.5205 2.4167 46.5205 2.89824V5.72294C46.5205 6.12038 46.8427 6.44258 47.2401 6.44258H49.1399C49.5374 6.44258 49.8596 6.76477 49.8596 7.16222V10.3616Z" fill="white"/>
<path d="M64.0642 6.85581C64.0642 6.62759 64.2492 6.44258 64.4774 6.44258H68.2073C68.6048 6.44258 68.9269 6.76477 68.9269 7.16222V21.8294C68.9269 22.2268 68.6048 22.549 68.2073 22.549H64.4774C64.2492 22.549 64.0642 22.364 64.0642 22.1358V22.1358C64.0642 21.7541 63.5655 21.5547 63.2616 21.7856C62.2492 22.5553 60.9167 23 59.2338 23C54.987 23 51.4858 19.2955 51.4858 14.4958C51.4858 9.69608 54.987 5.9916 59.2338 5.9916C60.9167 5.9916 62.2492 6.43633 63.2616 7.20595C63.5655 7.43693 64.0642 7.23749 64.0642 6.85581V6.85581ZM60.2064 18.4258C62.4433 18.4258 64.0642 16.9118 64.0642 14.4958C64.0642 12.0798 62.4433 10.5658 60.2064 10.5658C57.9695 10.5658 56.3486 12.0798 56.3486 14.4958C56.3486 16.9118 57.9695 18.4258 60.2064 18.4258Z" fill="white"/>
<path d="M85.2998 0.719643C85.2998 0.322195 85.622 0 86.0194 0H89.7671C90.1645 0 90.4867 0.322196 90.4867 0.719644V21.8294C90.4867 22.2268 90.1645 22.549 89.7671 22.549H86.9666C86.7344 22.549 86.5164 22.4369 86.3813 22.248L79.1486 12.1332C78.7415 11.5639 77.8435 11.8519 77.8435 12.5518V21.8294C77.8435 22.2268 77.5213 22.549 77.1239 22.549H73.3762C72.9788 22.549 72.6566 22.2268 72.6566 21.8294V0.719645C72.6566 0.322197 72.9788 0 73.3762 0H76.1767C76.409 0 76.627 0.112115 76.7621 0.301059L83.9948 10.4158C84.4019 10.9852 85.2998 10.6972 85.2998 9.99725V0.719643Z" fill="white"/>
<path d="M101.993 23C97.2272 23 93.4019 19.2955 93.4019 14.4958C93.4019 9.69608 97.2272 5.9916 101.993 5.9916C106.758 5.9916 110.584 9.69608 110.584 14.4958C110.584 19.2955 106.758 23 101.993 23ZM101.993 18.2969C104.1 18.2969 105.721 16.7829 105.721 14.4958C105.721 12.2087 104.1 10.6947 101.993 10.6947C99.8856 10.6947 98.2646 12.2087 98.2646 14.4958C98.2646 16.7829 99.8856 18.2969 101.993 18.2969Z" fill="white"/>
<path d="M122.516 10.3616C122.516 10.759 122.194 11.0812 121.797 11.0812H119.897C119.499 11.0812 119.177 11.4034 119.177 11.8009V16.7829C119.177 17.9935 120.093 18.2445 121.753 18.2025C122.167 18.192 122.516 18.5179 122.516 18.9324V21.8987C122.516 22.268 122.235 22.5788 121.867 22.6072C116.035 23.0574 114.314 21.1353 114.314 16.7829V11.8009C114.314 11.4034 113.992 11.0812 113.595 11.0812H112.44C112.043 11.0812 111.721 10.759 111.721 10.3616V7.16222C111.721 6.76477 112.043 6.44258 112.44 6.44258H113.595C113.992 6.44258 114.314 6.12038 114.314 5.72293V3.91877C114.314 3.6005 114.523 3.32003 114.828 3.22911L118.252 2.20858C118.713 2.07102 119.177 2.4167 119.177 2.89824V5.72294C119.177 6.12038 119.499 6.44258 119.897 6.44258H121.797C122.194 6.44258 122.516 6.76477 122.516 7.16222V10.3616Z" fill="white"/>
<path d="M130.328 16.4286C129.828 16.4286 129.482 16.935 129.787 17.3322C130.542 18.3188 131.773 18.6835 133.187 18.6835C134.261 18.6835 135.207 18.3473 135.873 17.8447C136.142 17.642 136.507 17.5779 136.799 17.7448L139.493 19.2841C139.865 19.4966 139.972 19.9873 139.688 20.308C138.114 22.087 135.894 23 133.122 23C127.579 23 124.142 19.2955 124.142 14.4958C124.142 9.69608 127.644 5.9916 132.766 5.9916C137.499 5.9916 141 9.63165 141 14.4958C141 14.9641 140.969 15.417 140.907 15.8544C140.859 16.191 140.562 16.4286 140.222 16.4286H130.328ZM129.552 11.9458C129.321 12.3612 129.67 12.8207 130.145 12.8207H135.223C135.699 12.8207 136.047 12.3603 135.815 11.9449C135.139 10.7359 133.936 10.2759 132.733 10.2759C131.246 10.2759 130.157 10.8606 129.552 11.9458Z" fill="white"/>
</svg>
