<svg width="79" height="61" viewBox="0 0 79 61" fill="none" xmlns="http://www.w3.org/2000/svg">
<path d="M0 52.5878C0 47.9419 3.75131 44.1757 8.37879 44.1757H70.6212C75.2487 44.1757 79 47.9419 79 52.5878C79 57.2337 75.2487 61 70.6212 61H8.37879C3.75131 61 0 57.2337 0 52.5878Z" fill="#39B997"/>
<path d="M0.0635416 36.9413C-0.500406 32.33 2.76577 28.1328 7.35876 27.5666L69.1372 19.951C73.7302 19.3848 77.9107 22.664 78.4747 27.2752C79.0386 31.8865 75.7725 36.0837 71.1795 36.6499L9.40099 44.2655C4.80801 44.8317 0.627489 41.5525 0.0635416 36.9413Z" fill="#B0E7D9"/>
<path d="M0.040276 7.97212C0.282459 3.33257 4.22496 -0.231411 8.84609 0.0117373L71.0032 3.28223C75.6243 3.52538 79.1742 7.48358 78.932 12.1231C78.6898 16.7627 74.7473 20.3267 70.1262 20.0835L7.96907 16.813C3.34794 16.5699 -0.201907 12.6117 0.040276 7.97212Z" fill="#DCF2EC"/>
</svg>
