<svg width="24" height="24" viewBox="0 0 24 24" fill="currentColor" xmlns="http://www.w3.org/2000/svg">
<path d="M17.7853 5H6.21466C5.89264 5.00042 5.58393 5.12853 5.35623 5.35623C5.12853 5.58393 5.00042 5.89264 5 6.21466V17.7853C5.00042 18.1074 5.12853 18.4161 5.35623 18.6438C5.58393 18.8715 5.89264 18.9996 6.21466 19H17.7853C18.1074 18.9996 18.4161 18.8715 18.6438 18.6438C18.8715 18.4161 18.9996 18.1074 19 17.7853V6.21466C18.9996 5.89264 18.8715 5.58393 18.6438 5.35623C18.4161 5.12853 18.1074 5.00042 17.7853 5ZM17.7273 17.7273H6.27273V6.27273H17.7273V17.7273Z" fill="#4D4D4D"/>
</svg>
