<svg width="18" height="13" viewBox="0 0 18 13" fill="currentColor" xmlns="http://www.w3.org/2000/svg">
<path d="M0 1C0 0.801088 0.0790178 0.610322 0.21967 0.46967C0.360322 0.329018 0.551088 0.25 0.75 0.25H17.25C17.4489 0.25 17.6397 0.329018 17.7803 0.46967C17.921 0.610322 18 0.801088 18 1C18 1.19891 17.921 1.38968 17.7803 1.53033C17.6397 1.67098 17.4489 1.75 17.25 1.75H0.75C0.551088 1.75 0.360322 1.67098 0.21967 1.53033C0.0790178 1.38968 0 1.19891 0 1ZM3 4C2.80109 4 2.61032 4.07902 2.46967 4.21967C2.32902 4.36032 2.25 4.55109 2.25 4.75C2.25 4.94891 2.32902 5.13968 2.46967 5.28033C2.61032 5.42098 2.80109 5.5 3 5.5H15C15.1989 5.5 15.3897 5.42098 15.5303 5.28033C15.671 5.13968 15.75 4.94891 15.75 4.75C15.75 4.55109 15.671 4.36032 15.5303 4.21967C15.3897 4.07902 15.1989 4 15 4H3ZM17.25 7.75H0.75C0.551088 7.75 0.360322 7.82902 0.21967 7.96967C0.0790178 8.11032 0 8.30109 0 8.5C0 8.69891 0.0790178 8.88968 0.21967 9.03033C0.360322 9.17098 0.551088 9.25 0.75 9.25H17.25C17.4489 9.25 17.6397 9.17098 17.7803 9.03033C17.921 8.88968 18 8.69891 18 8.5C18 8.30109 17.921 8.11032 17.7803 7.96967C17.6397 7.82902 17.4489 7.75 17.25 7.75ZM15 11.5H3C2.80109 11.5 2.61032 11.579 2.46967 11.7197C2.32902 11.8603 2.25 12.0511 2.25 12.25C2.25 12.4489 2.32902 12.6397 2.46967 12.7803C2.61032 12.921 2.80109 13 3 13H15C15.1989 13 15.3897 12.921 15.5303 12.7803C15.671 12.6397 15.75 12.4489 15.75 12.25C15.75 12.0511 15.671 11.8603 15.5303 11.7197C15.3897 11.579 15.1989 11.5 15 11.5Z" fill="#4D4D4D"/>
</svg>
