<svg width="24" height="24" viewBox="0 0 24 24" fill="none" xmlns="http://www.w3.org/2000/svg">
<path d="M21 11.9996C21.0002 14.3658 20.0686 16.6368 18.4069 18.3212C16.7451 20.0056 14.4869 20.9678 12.1209 20.9996H12C9.70147 21.0054 7.48901 20.1258 5.82187 18.5434C5.75028 18.4757 5.69273 18.3945 5.6525 18.3046C5.61227 18.2146 5.59016 18.1176 5.58741 18.0191C5.58467 17.9206 5.60136 17.8225 5.63652 17.7305C5.67168 17.6384 5.72463 17.5542 5.79234 17.4826C5.86006 17.411 5.94121 17.3535 6.03116 17.3132C6.12112 17.273 6.21812 17.2509 6.31662 17.2482C6.41512 17.2454 6.5132 17.2621 6.60525 17.2973C6.69731 17.3324 6.78153 17.3854 6.85312 17.4531C7.92544 18.4644 9.27195 19.1372 10.7245 19.3877C12.177 19.6381 13.6711 19.4551 15.0202 18.8613C16.3692 18.2675 17.5134 17.2894 18.3098 16.0492C19.1062 14.8089 19.5195 13.3614 19.4981 11.8877C19.4766 10.4139 19.0214 8.97906 18.1892 7.76249C17.3571 6.54591 16.1849 5.6015 14.8192 5.04724C13.4534 4.49298 11.9546 4.35343 10.51 4.64603C9.06537 4.93864 7.739 5.65042 6.69656 6.69246C6.6889 6.70074 6.68076 6.70857 6.67219 6.7159L4.18031 8.99965H6.75C6.94891 8.99965 7.13968 9.07866 7.28033 9.21932C7.42098 9.35997 7.5 9.55073 7.5 9.74965C7.5 9.94856 7.42098 10.1393 7.28033 10.28C7.13968 10.4206 6.94891 10.4996 6.75 10.4996H2.25C2.05109 10.4996 1.86032 10.4206 1.71967 10.28C1.57902 10.1393 1.5 9.94856 1.5 9.74965V5.24965C1.5 5.05073 1.57902 4.85997 1.71967 4.71932C1.86032 4.57866 2.05109 4.49965 2.25 4.49965C2.44891 4.49965 2.63968 4.57866 2.78033 4.71932C2.92098 4.85997 3 5.05073 3 5.24965V8.0434L5.64844 5.62465C6.90842 4.36956 8.512 3.5159 10.2567 3.17142C12.0015 2.82695 13.8092 3.00711 15.4516 3.68916C17.0941 4.37122 18.4976 5.52458 19.4851 7.00366C20.4726 8.48274 20.9997 10.2212 21 11.9996Z" fill="#4D4D4D"/>
</svg>
